<?xml version="1.0" standalone="no"?>
<!DOCTYPE svg PUBLIC "-//W3C//DTD SVG 20010904//EN"
 "http://www.w3.org/TR/2001/REC-SVG-20010904/DTD/svg10.dtd">
<svg version="1.0" xmlns="http://www.w3.org/2000/svg"
 width="130.000000pt" height="120.000000pt" viewBox="0 0 130.000000 120.000000"
 preserveAspectRatio="xMidYMid meet">

<!-- White Background Rectangle -->
<rect width="100%" height="100%" fill="white"/>

<g transform="translate(0.000000,120.000000) scale(0.100000,-0.100000)"
fill="#000000" stroke="none">
<path d="M397 712 c-26 -26 -47 -52 -47 -56 0 -9 295 -298 309 -304 3 -1 76
68 161 153 l155 155 -50 50 -49 50 -216 0 -216 0 -47 -48z m63 26 c0 7 14 12
37 12 35 0 36 -1 17 -16 -18 -15 -17 -15 6 -2 17 10 57 15 125 16 l100 1 6
-32 6 -32 2 33 c1 37 7 39 41 12 14 -11 30 -20 35 -20 6 0 -3 9 -20 20 l-30
20 38 0 c20 0 37 -4 37 -10 0 -11 -28 -40 -56 -57 -18 -11 -18 -11 1 -10 11 1
23 6 26 11 4 5 15 5 25 1 37 -16 49 -14 25 5 -20 15 -23 22 -15 39 9 21 11 20
52 -22 l44 -44 -136 0 c-109 0 -136 3 -141 15 -4 10 0 12 12 8 15 -5 14 -3 -2
9 -17 14 -18 17 -5 25 9 6 10 10 3 10 -6 0 -15 -5 -18 -11 -4 -5 -12 -8 -18
-6 -6 2 -16 0 -22 -5 -5 -5 -19 -16 -30 -24 -20 -15 -19 -15 2 -5 28 14 36 14
28 -1 -4 -7 1 -4 10 7 14 17 17 18 25 5 5 -8 10 -18 10 -21 0 -4 -72 -7 -160
-6 l-160 1 42 43 c30 30 44 39 50 30 6 -9 8 -9 8 1z m18 -108 c11 -13 11 -13
6 3 -4 11 -1 17 10 17 9 0 17 -8 17 -17 1 -17 2 -17 6 0 8 31 33 20 34 -15 l1
-33 7 30 6 30 115 2 c79 1 117 -2 122 -10 6 -9 8 -9 8 0 0 6 15 11 35 11 l34
0 -27 -34 c-29 -36 -40 -38 -22 -4 7 12 8 20 2 16 -5 -3 -15 -19 -22 -36 -8
-20 -16 -27 -20 -20 -4 7 -12 -6 -18 -29 -5 -23 -8 -41 -7 -41 2 0 31 34 65
75 52 64 66 75 93 75 l31 0 -29 -30 c-26 -27 -30 -29 -37 -13 -5 14 -7 13 -7
-8 -1 -18 -23 -47 -80 -102 -72 -71 -107 -96 -85 -64 5 7 2 6 -6 -3 -8 -9 -22
-27 -31 -40 l-15 -23 -28 29 c-16 16 -25 23 -22 17 4 -7 6 -13 4 -13 -2 0 -59
56 -128 125 l-124 125 49 -2 c31 -1 55 -8 63 -18z"/>
<path d="M442 694 c-22 -21 -12 -28 16 -10 7 4 19 3 27 -4 9 -7 15 -8 20 0 3
5 -1 13 -9 16 -9 3 -14 9 -11 13 10 17 -22 5 -43 -15z"/>
<path d="M459 615 c40 -59 90 -111 91 -93 0 26 -11 48 -21 42 -6 -3 -7 6 -4
23 3 16 2 21 -2 13 -12 -23 -30 -18 -59 15 l-26 30 21 -30z"/>
<path d="M681 624 c0 -11 3 -14 6 -6 3 7 2 16 -1 19 -3 4 -6 -2 -5 -13z"/>
<path d="M763 605 c0 -22 2 -30 4 -17 2 12 2 30 0 40 -3 9 -5 -1 -4 -23z"/>
<path d="M631 614 c0 -11 3 -14 6 -6 3 7 2 16 -1 19 -3 4 -6 -2 -5 -13z"/>
<path d="M431 604 c0 -11 3 -14 6 -6 3 7 2 16 -1 19 -3 4 -6 -2 -5 -13z"/>
<path d="M617 565 c36 -52 62 -73 49 -39 -3 8 -2 12 3 9 5 -3 12 -1 15 4 4 5
-5 8 -19 7 -19 -3 -30 6 -50 35 -14 22 -28 39 -31 39 -3 0 12 -25 33 -55z"/>
<path d="M791 604 c0 -11 3 -14 6 -6 3 7 2 16 -1 19 -3 4 -6 -2 -5 -13z"/>
<path d="M671 584 c0 -11 3 -14 6 -6 3 7 2 16 -1 19 -3 4 -6 -2 -5 -13z"/>
<path d="M641 574 c0 -11 3 -14 6 -6 3 7 2 16 -1 19 -3 4 -6 -2 -5 -13z"/>
<path d="M550 496 c0 -2 8 -10 18 -17 15 -13 16 -12 3 4 -13 16 -21 21 -21 13z"/>
<path d="M739 473 c-13 -16 -12 -17 4 -4 16 13 21 21 13 21 -2 0 -10 -8 -17
-17z"/>
<path d="M580 456 c0 -2 8 -10 18 -17 15 -13 16 -12 3 4 -13 16 -21 21 -21 13z"/>
</g>
</svg>
